<svg version="1.1" viewBox="0.0 0.0 1024.0 1024.0" fill="none" stroke="none" stroke-linecap="square" stroke-miterlimit="10" xmlns:xlink="http://www.w3.org/1999/xlink" xmlns="http://www.w3.org/2000/svg"><clipPath id="p.0"><path d="m0 0l1024.0 0l0 1024.0l-1024.0 0l0 -1024.0z" clip-rule="nonzero"/></clipPath><g clip-path="url(#p.0)"><path fill="#434343" d="m0 0l1024.0 0l0 1024.0l-1024.0 0z" fill-rule="evenodd"/><path fill="#ffffff" d="m4.7244093E-6 512.0l0 0c0 -282.76978 229.23021 -512.0 512.0 -512.0l0 0c135.79083 0 266.02008 53.942703 362.0387 149.96133c96.018616 96.01863 149.9613 226.24783 149.9613 362.03867l0 0c0 282.76978 -229.23022 512.0 -512.0 512.0l0 0c-282.76978 0 -512.0 -229.23022 -512.0 -512.0z" fill-rule="evenodd"/><path fill="#434343" d="m133.82687 512.00006l0 0c0 -203.34512 169.31393 -368.18896 378.17325 -368.18896l0 0c100.29773 0 196.48761 38.79123 267.4088 107.84006c70.921265 69.04881 110.764404 162.69914 110.764404 260.34888l0 0c0 203.34521 -169.3139 368.18903 -378.17322 368.18903l0 0c-208.85931 0 -378.17325 -164.84381 -378.17325 -368.18903z" fill-rule="evenodd"/><path fill="#ffffff" d="m581.03937 32.490814l0 263.5748l-69.055115 69.055115l-69.055115 -69.055115l0 -263.5748z" fill-rule="evenodd"/><path fill="#ffffff" d="m581.03937 989.31757l0 -261.40155l-69.055115 -69.055115l-69.055115 69.055115l0 261.40155z" fill-rule="evenodd"/><path fill="#ffffff" d="m45.34646 581.0551l250.7244 0l69.055115 -69.055115l-69.055115 -69.055115l-250.7244 0z" fill-rule="evenodd"/><path fill="#ffffff" d="m993.21783 581.0551l-265.30707 0l-69.055115 -69.055115l69.055115 -69.055115l265.30707 0z" fill-rule="evenodd"/></g></svg>